<svg height="512" viewBox="0 0 512 512" width="512" xmlns="http://www.w3.org/2000/svg" xmlns:xlink="http://www.w3.org/1999/xlink"><linearGradient id="a" gradientUnits="userSpaceOnUse" x1="-2.61" x2="555.13" y1="522.379" y2="-35.362" data-name="New Gradient Swatch 1"><stop offset="0" stop-color="#003f8a"/><stop offset=".518" stop-color="#00d7df"/><stop offset="1" stop-color="#006df0"/></linearGradient><linearGradient id="b" x1="21.505" x2="579.246" xlink:href="#a" y1="546.495" y2="-11.246"/><linearGradient id="c" x1="-22.495" x2="535.246" xlink:href="#a" y1="502.495" y2="-55.246"/><linearGradient id="d" x1="65.505" x2="623.246" xlink:href="#a" y1="590.495" y2="32.754"/><g><path d="m432 79h-32v-15a8 8 0 0 0 -8-8h-64v-20a28.031 28.031 0 0 0 -28-28h-88a28.031 28.031 0 0 0 -28 28v20h-64a8 8 0 0 0 -8 8v15h-32a8 8 0 0 0 -8 8v57a8 8 0 0 0 8 8h24v304a48.051 48.051 0 0 0 48 48h208a48.051 48.051 0 0 0 48-48v-304h24a8 8 0 0 0 8-8v-57a8 8 0 0 0 -8-8zm-232-43a12.01 12.01 0 0 1 12-12h88a12.01 12.01 0 0 1 12 12v20h-112zm-72 36h256v7h-256zm264 384a32.03 32.03 0 0 1 -32 32h-208a32.03 32.03 0 0 1 -32-32v-304h272zm32-320h-336v-41h336z" fill="url(#a)"/><path d="m240 448h32a8 8 0 0 0 8-8v-256a8 8 0 0 0 -8-8h-32a8 8 0 0 0 -8 8v256a8 8 0 0 0 8 8zm8-256h16v240h-16z" fill="url(#b)"/><path d="m152 448h32a8 8 0 0 0 8-8v-256a8 8 0 0 0 -8-8h-32a8 8 0 0 0 -8 8v256a8 8 0 0 0 8 8zm8-256h16v240h-16z" fill="url(#c)"/><path d="m328 448h32a8 8 0 0 0 8-8v-256a8 8 0 0 0 -8-8h-32a8 8 0 0 0 -8 8v256a8 8 0 0 0 8 8zm8-256h16v240h-16z" fill="url(#d)"/></g></svg>